<svg width="216" height="217" viewBox="0 0 216 217" fill="none" xmlns="http://www.w3.org/2000/svg">
<g style="mix-blend-mode:multiply">
<path d="M95.499 15.1845L123.993 18.4909L163.126 74.1702L120.263 149.178L106.79 136.389L62.7828 210.303L65.553 66.2089L83.8964 84.1492L95.499 15.1845Z" fill="black" fill-opacity="0.22"/>
</g>
<path d="M101.844 67.9765L67.3915 207.922L115.783 89.5139L101.844 67.9765Z" fill="url(#paint0_linear_3_18)"/>
<path d="M142.299 24.8013L115.783 89.5139L127.88 107.611L169.366 34.3109L142.299 24.8013Z" fill="url(#paint1_linear_3_18)"/>
<path d="M169.366 34.3109L127.88 107.611L115.783 89.5139L67.3915 207.922L126.602 145.513L136.931 160.957L195.263 97.2339L169.366 34.3109Z" fill="url(#paint2_linear_3_18)"/>
<path d="M169.366 34.3109L127.88 107.611L115.783 89.5139L67.3915 207.922" stroke="#0C0F14" stroke-width="5" stroke-miterlimit="10"/>
<path d="M115.783 89.5139L142.299 24.8014L169.366 34.311L195.263 97.2339L136.931 160.957L126.602 145.513L67.3916 207.922L101.844 67.9765L115.783 89.5139Z" stroke="#0C0F14" stroke-width="5" stroke-miterlimit="10"/>
<defs>
<linearGradient id="paint0_linear_3_18" x1="108.061" y1="80.9914" x2="93.8256" y2="130.731" gradientUnits="userSpaceOnUse">
<stop stop-color="#FE8103"/>
<stop offset="1" stop-color="#FE6303"/>
</linearGradient>
<linearGradient id="paint1_linear_3_18" x1="153.445" y1="34.4651" x2="130.944" y2="82.6597" gradientUnits="userSpaceOnUse">
<stop stop-color="#FE8103"/>
<stop offset="1" stop-color="#FE6303"/>
</linearGradient>
<linearGradient id="paint2_linear_3_18" x1="159.05" y1="89.3075" x2="63.0811" y2="196.766" gradientUnits="userSpaceOnUse">
<stop stop-color="#FEB113"/>
<stop offset="1" stop-color="#FE8103"/>
</linearGradient>
</defs>
</svg>
